<svg xmlns="http://www.w3.org/2000/svg" xmlns:xlink="http://www.w3.org/1999/xlink" width="200" height="68" viewBox="0 0 200 68">
  <defs>
    <clipPath id="clip-path">
      <rect id="Download_on_the_App_Store_Badge_US-UK_RGB_wht_092917_1_Frame_Clip_Content_Mask_" data-name="Download_on_the_App_Store_Badge_US-UK_RGB_wht_092917 1 [Frame Clip Content Mask]" width="200" height="68" transform="translate(620 366)" fill="none"/>
    </clipPath>
  </defs>
  <g id="Download_on_the_App_Store_Badge_US-UK_RGB_wht_092917_1_Clip_Content_" data-name="Download_on_the_App_Store_Badge_US-UK_RGB_wht_092917 1 (Clip Content)" transform="translate(-620 -366)" clip-path="url(#clip-path)">
    <rect id="Download_on_the_App_Store_Badge_US-UK_RGB_wht_092917_1_Frame_Background_" data-name="Download_on_the_App_Store_Badge_US-UK_RGB_wht_092917 1 [Frame Background]" width="200" height="68" transform="translate(620 366)" fill="none"/>
    <path id="Vector" d="M185.885,0c.509,0,1.032.013,1.541.022a21.443,21.443,0,0,1,3.343.3,11.178,11.178,0,0,1,3.189,1.066,10.9,10.9,0,0,1,4.678,4.76,11.386,11.386,0,0,1,1.035,3.236,23.344,23.344,0,0,1,.31,3.4c.007.521.007,1.044.007,1.566.013.616.013,1.233.013,1.856V51.79c0,.628,0,1.242-.013,1.859,0,.528,0,1.039-.007,1.567a23.344,23.344,0,0,1-.31,3.4,11.363,11.363,0,0,1-1.035,3.237,10.864,10.864,0,0,1-1.975,2.744,10.5,10.5,0,0,1-2.7,2,11.239,11.239,0,0,1-3.189,1.072,21.828,21.828,0,0,1-3.343.3c-.509.012-1.032.018-1.541.018-.6,0-1.211,0-1.812,0H15.936c-.613,0-1.218,0-1.83,0-.512,0-1.019-.007-1.536-.018a22.119,22.119,0,0,1-3.349-.3,11.069,11.069,0,0,1-3.177-1.072,10.891,10.891,0,0,1-4.675-4.748A11.333,11.333,0,0,1,.325,58.62a22.456,22.456,0,0,1-.3-3.4C.01,54.689.008,54.178,0,53.65V14.356c.008-.521.01-1.044.025-1.565a22.456,22.456,0,0,1,.3-3.4A11.357,11.357,0,0,1,1.369,6.151,10.634,10.634,0,0,1,3.339,3.4a10.77,10.77,0,0,1,2.705-2A11.009,11.009,0,0,1,9.221.326a21.724,21.724,0,0,1,3.349-.3C13.087.017,13.594.007,14.106,0c.611,0,1.217,0,1.83,0H184.073c.6,0,1.211,0,1.812,0Z" transform="translate(620 366)"/>
    <path id="Vector-2" data-name="Vector" d="M12.655,65.025c-.509,0-1.006-.007-1.511-.018A20.857,20.857,0,0,1,8.02,64.73,9.719,9.719,0,0,1,5.251,63.8,9.42,9.42,0,0,1,1.21,59.7,9.844,9.844,0,0,1,.3,56.879a21.455,21.455,0,0,1-.278-3.187C.014,53.333,0,52.139,0,52.139V12.868s.015-1.175.025-1.521A21.381,21.381,0,0,1,.3,8.165,9.9,9.9,0,0,1,1.21,5.339a9.13,9.13,0,0,1,1.7-2.377A9.311,9.311,0,0,1,5.25,1.224,9.618,9.618,0,0,1,8.013.3,20.689,20.689,0,0,1,11.148.021L12.656,0H184.418l1.526.022A20.36,20.36,0,0,1,189.05.3a9.808,9.808,0,0,1,2.793.931,9.431,9.431,0,0,1,4.036,4.114,9.915,9.915,0,0,1,.894,2.8,22.461,22.461,0,0,1,.29,3.208c0,.481,0,1,0,1.513.013.637.013,1.244.013,1.856V50.3c0,.618,0,1.22-.013,1.828,0,.553,0,1.059-.007,1.58a22,22,0,0,1-.286,3.151,9.875,9.875,0,0,1-.9,2.839,9.31,9.31,0,0,1-1.7,2.356,9.056,9.056,0,0,1-2.339,1.738,9.682,9.682,0,0,1-2.788.935,20.617,20.617,0,0,1-3.124.277c-.49.012-1,.018-1.5.018l-1.812,0Z" transform="translate(621.461 367.484)" fill="#fff"/>
    <path id="_Path_" data-name="&lt;Path&gt;" d="M27.1,15.851a8.346,8.346,0,0,0,3.688,3.112,19.517,19.517,0,0,1-2.639,5.467c-1.554,2.365-3.184,4.676-5.771,4.719-2.514.059-3.358-1.5-6.241-1.5-2.91,0-3.81,1.462-6.221,1.564-2.464.093-4.346-2.524-5.957-4.867C.742,19.556-1.765,10.856,1.6,4.937A9.328,9.328,0,0,1,4.858,1.484,9.125,9.125,0,0,1,9.37.114c2.466-.052,4.756,1.694,6.272,1.694,1.487,0,4.317-2.088,7.235-1.776A8.69,8.69,0,0,1,26.789,1.1a8.856,8.856,0,0,1,3.025,2.741,8.684,8.684,0,0,0-2.976,3.134,8.864,8.864,0,0,0-1.12,4.206A8.558,8.558,0,0,0,27.1,15.851Z" transform="translate(636.063 388.625)"/>
    <path id="_Path_2" data-name="&lt;Path&gt;" d="M3.136,8.181a7.024,7.024,0,0,1-3.119.695A8.327,8.327,0,0,1,.429,5.7,8.231,8.231,0,0,1,2,2.934,8.57,8.57,0,0,1,7.58,0,8.712,8.712,0,0,1,5.643,6.171,7.145,7.145,0,0,1,3.136,8.181Z" transform="translate(651.391 379.336)"/>
    <path id="Vector-3" data-name="Vector" d="M13.162,15.4H5.251l-1.9,5.706H0L7.493,0h3.481l7.493,21.111H15.06ZM6.07,12.772h6.271L9.25,3.511H9.163Z" transform="translate(677.539 396.727)"/>
    <path id="Vector-4" data-name="Vector" d="M14.254,7.86c0,4.783-2.517,7.856-6.315,7.856a5.06,5.06,0,0,1-2.761-.65,5.175,5.175,0,0,1-2-2.042H3.106v7.623H0V.164H3.006v2.56h.057A5.412,5.412,0,0,1,5.1.686,5.3,5.3,0,0,1,7.882,0c3.841,0,6.372,3.088,6.372,7.858Zm-3.193,0c0-3.116-1.583-5.165-4-5.165C4.689,2.7,3.093,4.787,3.093,7.86c0,3.1,1.6,5.178,3.969,5.178,2.416,0,4-2.034,4-5.178Z" transform="translate(697.938 402.281)"/>
    <path id="Vector-5" data-name="Vector" d="M14.255,7.86c0,4.783-2.518,7.856-6.316,7.856a5.06,5.06,0,0,1-2.761-.65,5.175,5.175,0,0,1-2-2.042H3.106v7.623H0V.164H3.006v2.56h.057A5.412,5.412,0,0,1,5.1.686,5.3,5.3,0,0,1,7.882,0c3.841,0,6.373,3.088,6.373,7.858Zm-3.193,0c0-3.116-1.583-5.165-4-5.165C4.689,2.7,3.093,4.787,3.093,7.86c0,3.1,1.6,5.178,3.969,5.178,2.416,0,4-2.034,4-5.178Z" transform="translate(714.594 402.281)"/>
    <path id="Vector-6" data-name="Vector" d="M3.18,15.581c.23,2.093,2.23,3.468,4.962,3.468,2.618,0,4.5-1.375,4.5-3.262,0-1.639-1.136-2.62-3.826-3.292l-2.69-.659C2.316,10.9.547,9.086.547,6.144.547,2.5,3.668,0,8.1,0c4.387,0,7.394,2.5,7.495,6.144H12.457c-.188-2.107-1.9-3.378-4.4-3.378S3.841,4.052,3.841,5.925c0,1.492,1.094,2.371,3.769,3.043L9.9,9.539c4.258,1.024,6.026,2.764,6.026,5.852,0,3.95-3.091,6.423-8.011,6.423C3.308,21.814.2,19.4,0,15.58Z" transform="translate(736.672 396.375)"/>
    <path id="Vector-7" data-name="Vector" d="M5.321,0V3.642H8.2v2.5H5.321v8.485c0,1.318.576,1.932,1.841,1.932a9.546,9.546,0,0,0,1.022-.073v2.487a8.389,8.389,0,0,1-1.725.146c-3.064,0-4.258-1.17-4.258-4.155V6.144H0v-2.5H2.2V0Z" transform="translate(753.977 398.805)"/>
    <path id="Vector-8" data-name="Vector" d="M0,7.886C0,3.043,2.8,0,7.177,0s7.178,3.043,7.178,7.886-2.776,7.886-7.178,7.886S0,12.742,0,7.886Zm11.19,0c0-3.322-1.5-5.283-4.014-5.283S3.163,4.579,3.163,7.886c0,3.335,1.5,5.281,4.014,5.281s4.014-1.946,4.014-5.281Z" transform="translate(763.844 402.258)"/>
    <path id="Vector-9" data-name="Vector" d="M0,.164H2.962v2.62h.072A3.675,3.675,0,0,1,4.369.736,3.568,3.568,0,0,1,6.674,0,4.713,4.713,0,0,1,7.738.121V3.076a4.274,4.274,0,0,0-1.4-.191,3.083,3.083,0,0,0-1.319.237,3.129,3.129,0,0,0-1.1.776,3.2,3.2,0,0,0-.681,1.173,3.235,3.235,0,0,0-.137,1.355v9.129H0Z" transform="translate(780.758 402.281)"/>
    <path id="Vector-10" data-name="Vector" d="M13.65,11.06c-.418,2.794-3.093,4.712-6.516,4.712-4.4,0-7.134-3-7.134-7.813S2.747,0,7,0c4.187,0,6.819,2.925,6.819,7.592V8.674H3.135v.191a4.073,4.073,0,0,0,.2,1.674,4.021,4.021,0,0,0,.863,1.44,3.939,3.939,0,0,0,1.37.951,3.882,3.882,0,0,0,1.633.294,3.377,3.377,0,0,0,2.1-.493A3.467,3.467,0,0,0,10.7,11.06ZM3.15,6.466h7.565a3.759,3.759,0,0,0-.223-1.5A3.711,3.711,0,0,0,9.7,3.688a3.637,3.637,0,0,0-1.232-.851A3.585,3.585,0,0,0,7,2.56a3.774,3.774,0,0,0-1.475.291A3.827,3.827,0,0,0,4.277,3.7a3.9,3.9,0,0,0-.836,1.27,3.955,3.955,0,0,0-.291,1.5Z" transform="translate(789.164 402.258)"/>
    <path id="Vector-11" data-name="Vector" d="M3.6.012A4.344,4.344,0,0,1,5.515.3,4.408,4.408,0,0,1,7.121,1.4a4.5,4.5,0,0,1,.99,1.691,4.56,4.56,0,0,1,.183,1.959c0,3.241-1.722,5.1-4.693,5.1H0V.012ZM1.549,8.721h1.88a3.088,3.088,0,0,0,1.363-.227,3.135,3.135,0,0,0,1.135-.8,3.2,3.2,0,0,0,.686-1.219,3.241,3.241,0,0,0,.1-1.4A3.25,3.25,0,0,0,6.6,3.68a3.211,3.211,0,0,0-.688-1.21,3.143,3.143,0,0,0-1.13-.8,3.1,3.1,0,0,0-1.355-.229H1.549Z" transform="translate(679.617 380.836)"/>
    <path id="Vector-12" data-name="Vector" d="M.017,3.972a3.685,3.685,0,0,1,.166-1.49A3.641,3.641,0,0,1,.928,1.187,3.568,3.568,0,0,1,2.123.31a3.51,3.51,0,0,1,2.885,0,3.568,3.568,0,0,1,1.2.877,3.641,3.641,0,0,1,.745,1.294,3.685,3.685,0,0,1,.166,1.49,3.686,3.686,0,0,1-.164,1.492,3.642,3.642,0,0,1-.744,1.3,3.569,3.569,0,0,1-1.2.879,3.511,3.511,0,0,1-2.888,0,3.569,3.569,0,0,1-1.2-.879,3.642,3.642,0,0,1-.744-1.3A3.686,3.686,0,0,1,.017,3.972Zm5.571,0c0-1.659-.733-2.63-2.019-2.63s-2.017.97-2.017,2.63.726,2.635,2.017,2.635S5.587,5.638,5.587,3.972Z" transform="translate(689.648 383.188)"/>
    <path id="Vector-13" data-name="Vector" d="M8.363,7.655H6.822L5.267,2.017H5.15L3.6,7.655H2.074L0,0H1.507L2.855,5.841h.111L4.513,0H5.938L7.485,5.841H7.6L8.944,0H10.43Z" transform="translate(697.836 383.336)"/>
    <path id="Vector-14" data-name="Vector" d="M0,.155H1.43V1.371h.111A2.28,2.28,0,0,1,2.449.324,2.223,2.223,0,0,1,3.787.008,2.41,2.41,0,0,1,4.862.172a2.447,2.447,0,0,1,.9.622,2.5,2.5,0,0,1,.546.957,2.531,2.531,0,0,1,.084,1.1V7.81H4.906V3.234c0-1.23-.526-1.842-1.624-1.842a1.7,1.7,0,0,0-.728.126,1.726,1.726,0,0,0-.609.424,1.762,1.762,0,0,0-.38.644,1.784,1.784,0,0,0-.081.746V7.81H0Z" transform="translate(710.008 383.18)"/>
    <path id="Vector-15" data-name="Vector" d="M0,0H1.485V10.643H0Z" transform="translate(718.766 380.344)"/>
    <path id="Vector-16" data-name="Vector" d="M.017,3.972a3.685,3.685,0,0,1,.166-1.49A3.641,3.641,0,0,1,.928,1.187,3.569,3.569,0,0,1,2.124.31a3.511,3.511,0,0,1,2.885,0,3.568,3.568,0,0,1,1.2.877A3.641,3.641,0,0,1,6.95,2.482a3.685,3.685,0,0,1,.166,1.49,3.686,3.686,0,0,1-.164,1.492,3.642,3.642,0,0,1-.744,1.3,3.569,3.569,0,0,1-1.2.879,3.511,3.511,0,0,1-2.888,0,3.569,3.569,0,0,1-1.2-.879,3.642,3.642,0,0,1-.744-1.3A3.686,3.686,0,0,1,.017,3.972Zm5.571,0c0-1.659-.733-2.63-2.019-2.63s-2.017.97-2.017,2.63.726,2.635,2.017,2.635S5.587,5.638,5.587,3.972Z" transform="translate(722.297 383.188)"/>
    <path id="Vector-17" data-name="Vector" d="M0,5.638C0,4.26,1.009,3.466,2.8,3.353l2.039-.12V2.572c0-.809-.526-1.265-1.541-1.265-.829,0-1.4.31-1.569.851H.291C.442.843,1.658,0,3.366,0,5.252,0,6.317.955,6.317,2.572V7.8H4.887V6.727H4.769a2.549,2.549,0,0,1-.971.912,2.5,2.5,0,0,1-1.29.29,2.237,2.237,0,0,1-.937-.1,2.264,2.264,0,0,1-.817-.479A2.311,2.311,0,0,1,.2,6.575,2.346,2.346,0,0,1,0,5.638Zm4.838-.654v-.64L3,4.463c-1.036.071-1.507.429-1.507,1.1s.588,1.09,1.4,1.09a1.746,1.746,0,0,0,.7-.071,1.765,1.765,0,0,0,.62-.345,1.8,1.8,0,0,0,.438-.564,1.829,1.829,0,0,0,.187-.693Z" transform="translate(730.977 383.188)"/>
    <path id="Vector-18" data-name="Vector" d="M0,6.812C0,4.394,1.223,2.861,3.124,2.861a2.447,2.447,0,0,1,1.346.33A2.5,2.5,0,0,1,5.432,4.2h.111V0H7.028V10.643H5.6V9.434H5.487a2.634,2.634,0,0,1-1,1,2.577,2.577,0,0,1-1.365.333C1.209,10.77,0,9.237,0,6.812Zm1.534,0c0,1.624.752,2.6,2.011,2.6s2.026-.991,2.026-2.594-.782-2.6-2.026-2.6S1.534,5.2,1.534,6.812Z" transform="translate(739.25 380.344)"/>
    <path id="Vector-19" data-name="Vector" d="M.017,3.972a3.685,3.685,0,0,1,.166-1.49A3.641,3.641,0,0,1,.928,1.187,3.568,3.568,0,0,1,2.123.31a3.51,3.51,0,0,1,2.885,0,3.568,3.568,0,0,1,1.2.877,3.641,3.641,0,0,1,.745,1.294,3.685,3.685,0,0,1,.166,1.49,3.686,3.686,0,0,1-.164,1.492,3.642,3.642,0,0,1-.744,1.3,3.569,3.569,0,0,1-1.2.879,3.511,3.511,0,0,1-2.888,0,3.569,3.569,0,0,1-1.2-.879,3.642,3.642,0,0,1-.744-1.3A3.686,3.686,0,0,1,.017,3.972Zm5.571,0c0-1.659-.733-2.63-2.019-2.63s-2.017.97-2.017,2.63.726,2.635,2.017,2.635S5.587,5.638,5.587,3.972Z" transform="translate(752.406 383.188)"/>
    <path id="Vector-20" data-name="Vector" d="M0,.155H1.43V1.371h.111A2.28,2.28,0,0,1,2.449.324,2.223,2.223,0,0,1,3.787.008,2.41,2.41,0,0,1,4.862.172a2.447,2.447,0,0,1,.9.622,2.5,2.5,0,0,1,.546.957,2.531,2.531,0,0,1,.084,1.1V7.81H4.906V3.234c0-1.23-.526-1.842-1.624-1.842a1.7,1.7,0,0,0-.728.126,1.726,1.726,0,0,0-.609.424,1.762,1.762,0,0,0-.38.644,1.785,1.785,0,0,0-.081.746V7.81H0Z" transform="translate(761.508 383.18)"/>
    <path id="Vector-21" data-name="Vector" d="M2.682,0V1.941H4.312V3.213H2.682V7.149c0,.8.325,1.153,1.064,1.153a4.877,4.877,0,0,0,.566-.035V9.526A4.793,4.793,0,0,1,3.5,9.6c-1.652,0-2.31-.591-2.31-2.067V3.213H0V1.941H1.195V0Z" transform="translate(773.609 381.43)"/>
    <path id="Vector-22" data-name="Vector" d="M0,0H1.472V4.218H1.59a2.342,2.342,0,0,1,.934-1.054,2.284,2.284,0,0,1,1.36-.317,2.442,2.442,0,0,1,1.067.181,2.479,2.479,0,0,1,.889.626,2.532,2.532,0,0,1,.543.951,2.563,2.563,0,0,1,.093,1.1v4.942H4.99V6.074c0-1.223-.56-1.842-1.609-1.842a1.731,1.731,0,0,0-.752.1,1.755,1.755,0,0,0-.639.418,1.793,1.793,0,0,0-.406.653,1.817,1.817,0,0,0-.1.766v4.471H0Z" transform="translate(779.953 380.344)"/>
    <path id="Vector-23" data-name="Vector" d="M6.77,5.736a3.1,3.1,0,0,1-1.235,1.71,3.015,3.015,0,0,1-2.026.505,3.368,3.368,0,0,1-1.444-.283A3.421,3.421,0,0,1,.871,6.794a3.493,3.493,0,0,1-.722-1.3A3.534,3.534,0,0,1,.032,4,3.589,3.589,0,0,1,.151,2.5,3.548,3.548,0,0,1,.87,1.194,3.475,3.475,0,0,1,2.058.306,3.421,3.421,0,0,1,3.5,0C5.6,0,6.859,1.455,6.859,3.859v.527H1.545v.085a2.056,2.056,0,0,0,.1.83,2.03,2.03,0,0,0,.423.717,1.99,1.99,0,0,0,.672.482,1.96,1.96,0,0,0,.807.164,1.778,1.778,0,0,0,1.034-.187,1.818,1.818,0,0,0,.756-.741ZM1.545,3.269h3.8a1.876,1.876,0,0,0-.1-.758,1.852,1.852,0,0,0-.394-.651,1.815,1.815,0,0,0-.619-.433,1.789,1.789,0,0,0-.739-.141,1.9,1.9,0,0,0-.75.144,1.923,1.923,0,0,0-.636.429,1.961,1.961,0,0,0-.422.647,1.987,1.987,0,0,0-.142.763Z" transform="translate(788.32 383.188)"/>
  </g>
</svg>
